<mxfile host="app.diagrams.net" agent="Mozilla/5.0 (Windows NT 10.0; Win64; x64) AppleWebKit/537.36 (KHTML, like Gecko) Chrome/136.0.0.0 Safari/537.36" version="27.0.6">
  <diagram name="PÃ¡gina-1" id="HjVazzPD2xpo3vOuEA2V">
    <mxGraphModel dx="666" dy="297" grid="1" gridSize="10" guides="1" tooltips="1" connect="1" arrows="1" fold="1" page="1" pageScale="1" pageWidth="827" pageHeight="1169" math="0" shadow="0">
      <root>
        <mxCell id="0" />
        <mxCell id="1" parent="0" />
        <mxCell id="5aG_hYRVHrZAL2i0zoJV-1" value="&lt;font style=&quot;vertical-align: inherit;&quot;&gt;&lt;font style=&quot;vertical-align: inherit;&quot;&gt;User&lt;/font&gt;&lt;/font&gt;&lt;div&gt;&lt;font style=&quot;vertical-align: inherit;&quot;&gt;&lt;font style=&quot;vertical-align: inherit;&quot;&gt;&lt;br&gt;&lt;/font&gt;&lt;/font&gt;&lt;/div&gt;" style="shape=umlActor;verticalLabelPosition=bottom;verticalAlign=top;html=1;" vertex="1" parent="1">
          <mxGeometry x="190" y="250" width="30" height="60" as="geometry" />
        </mxCell>
        <mxCell id="5aG_hYRVHrZAL2i0zoJV-2" value="&lt;font style=&quot;vertical-align: inherit;&quot;&gt;&lt;font style=&quot;vertical-align: inherit;&quot;&gt;Suporte&lt;/font&gt;&lt;/font&gt;" style="shape=umlActor;verticalLabelPosition=bottom;verticalAlign=top;html=1;" vertex="1" parent="1">
          <mxGeometry x="580" y="250" width="30" height="60" as="geometry" />
        </mxCell>
        <mxCell id="5aG_hYRVHrZAL2i0zoJV-4" value="" style="rounded=0;whiteSpace=wrap;html=1;" vertex="1" parent="1">
          <mxGeometry x="240" y="180" width="320" height="240" as="geometry" />
        </mxCell>
        <mxCell id="5aG_hYRVHrZAL2i0zoJV-6" value="" style="endArrow=none;html=1;rounded=0;entryX=0.52;entryY=0.443;entryDx=0;entryDy=0;entryPerimeter=0;exitX=1;exitY=0.5;exitDx=0;exitDy=0;" edge="1" parent="1" source="5aG_hYRVHrZAL2i0zoJV-7" target="5aG_hYRVHrZAL2i0zoJV-2">
          <mxGeometry width="50" height="50" relative="1" as="geometry">
            <mxPoint x="504" y="282.39" as="sourcePoint" />
            <mxPoint x="592.69" y="277.61" as="targetPoint" />
            <Array as="points" />
          </mxGeometry>
        </mxCell>
        <mxCell id="5aG_hYRVHrZAL2i0zoJV-7" value="&lt;h3 style=&quot;box-sizing: border-box; margin-top: 0px; margin-bottom: 0.5rem; font-weight: 500; line-height: 1.2; font-family: &amp;quot;Roboto Condensed&amp;quot;; color: rgb(33, 37, 41); text-align: left; background-color: rgb(248, 249, 250);&quot; id=&quot;yui_3_17_2_1_1747692782615_1180&quot;&gt;&lt;font style=&quot;vertical-align: inherit;&quot;&gt;&lt;font style=&quot;vertical-align: inherit;&quot;&gt;&lt;font style=&quot;vertical-align: inherit;&quot;&gt;&lt;font style=&quot;vertical-align: inherit;&quot;&gt;&lt;font style=&quot;vertical-align: inherit;&quot;&gt;&lt;font style=&quot;vertical-align: inherit; font-size: 9px;&quot;&gt;concurso Chamado&lt;/font&gt;&lt;/font&gt;&lt;/font&gt;&lt;/font&gt;&lt;/font&gt;&lt;/font&gt;&lt;/h3&gt;" style="ellipse;whiteSpace=wrap;html=1;" vertex="1" parent="1">
          <mxGeometry x="440" y="190" width="90" height="40" as="geometry" />
        </mxCell>
        <mxCell id="5aG_hYRVHrZAL2i0zoJV-9" value="" style="endArrow=none;html=1;rounded=0;exitX=0.5;exitY=0.5;exitDx=0;exitDy=0;exitPerimeter=0;entryX=1;entryY=0.5;entryDx=0;entryDy=0;" edge="1" parent="1" source="5aG_hYRVHrZAL2i0zoJV-2" target="5aG_hYRVHrZAL2i0zoJV-21">
          <mxGeometry width="50" height="50" relative="1" as="geometry">
            <mxPoint x="310" y="290" as="sourcePoint" />
            <mxPoint x="360" y="240" as="targetPoint" />
          </mxGeometry>
        </mxCell>
        <mxCell id="5aG_hYRVHrZAL2i0zoJV-10" value="" style="endArrow=none;html=1;rounded=0;exitX=0.5;exitY=0.5;exitDx=0;exitDy=0;exitPerimeter=0;entryX=0;entryY=0.5;entryDx=0;entryDy=0;" edge="1" parent="1" source="5aG_hYRVHrZAL2i0zoJV-1" target="5aG_hYRVHrZAL2i0zoJV-21">
          <mxGeometry width="50" height="50" relative="1" as="geometry">
            <mxPoint x="290" y="290" as="sourcePoint" />
            <mxPoint x="340" y="240" as="targetPoint" />
          </mxGeometry>
        </mxCell>
        <mxCell id="5aG_hYRVHrZAL2i0zoJV-11" value="" style="endArrow=none;html=1;rounded=0;entryX=0;entryY=0.5;entryDx=0;entryDy=0;exitX=0.5;exitY=0.5;exitDx=0;exitDy=0;exitPerimeter=0;" edge="1" parent="1" source="5aG_hYRVHrZAL2i0zoJV-1" target="5aG_hYRVHrZAL2i0zoJV-24">
          <mxGeometry width="50" height="50" relative="1" as="geometry">
            <mxPoint x="340" y="330" as="sourcePoint" />
            <mxPoint x="390" y="280" as="targetPoint" />
          </mxGeometry>
        </mxCell>
        <mxCell id="5aG_hYRVHrZAL2i0zoJV-12" value="" style="endArrow=none;html=1;rounded=0;entryX=0;entryY=0.5;entryDx=0;entryDy=0;exitX=0.5;exitY=0.5;exitDx=0;exitDy=0;exitPerimeter=0;" edge="1" parent="1" source="5aG_hYRVHrZAL2i0zoJV-1" target="5aG_hYRVHrZAL2i0zoJV-22">
          <mxGeometry width="50" height="50" relative="1" as="geometry">
            <mxPoint x="340" y="330" as="sourcePoint" />
            <mxPoint x="390" y="280" as="targetPoint" />
          </mxGeometry>
        </mxCell>
        <mxCell id="5aG_hYRVHrZAL2i0zoJV-13" value="" style="endArrow=none;html=1;rounded=0;entryX=0;entryY=0.5;entryDx=0;entryDy=0;exitX=0.5;exitY=0.5;exitDx=0;exitDy=0;exitPerimeter=0;" edge="1" parent="1" source="5aG_hYRVHrZAL2i0zoJV-1" target="5aG_hYRVHrZAL2i0zoJV-25">
          <mxGeometry width="50" height="50" relative="1" as="geometry">
            <mxPoint x="360" y="340" as="sourcePoint" />
            <mxPoint x="410" y="290" as="targetPoint" />
          </mxGeometry>
        </mxCell>
        <mxCell id="5aG_hYRVHrZAL2i0zoJV-14" value="" style="endArrow=none;html=1;rounded=0;exitX=1;exitY=0.5;exitDx=0;exitDy=0;entryX=0.5;entryY=0.5;entryDx=0;entryDy=0;entryPerimeter=0;" edge="1" parent="1" source="5aG_hYRVHrZAL2i0zoJV-25" target="5aG_hYRVHrZAL2i0zoJV-2">
          <mxGeometry width="50" height="50" relative="1" as="geometry">
            <mxPoint x="459" y="390" as="sourcePoint" />
            <mxPoint x="509" y="340" as="targetPoint" />
          </mxGeometry>
        </mxCell>
        <mxCell id="5aG_hYRVHrZAL2i0zoJV-15" value="" style="endArrow=none;html=1;rounded=0;entryX=0.5;entryY=0.5;entryDx=0;entryDy=0;entryPerimeter=0;exitX=0;exitY=0.5;exitDx=0;exitDy=0;" edge="1" parent="1" source="5aG_hYRVHrZAL2i0zoJV-26" target="5aG_hYRVHrZAL2i0zoJV-1">
          <mxGeometry width="50" height="50" relative="1" as="geometry">
            <mxPoint x="414" y="310" as="sourcePoint" />
            <mxPoint x="464" y="260" as="targetPoint" />
          </mxGeometry>
        </mxCell>
        <mxCell id="5aG_hYRVHrZAL2i0zoJV-16" value="" style="endArrow=none;html=1;rounded=0;entryX=0.5;entryY=0.5;entryDx=0;entryDy=0;entryPerimeter=0;exitX=1;exitY=0.5;exitDx=0;exitDy=0;" edge="1" parent="1" source="5aG_hYRVHrZAL2i0zoJV-28" target="5aG_hYRVHrZAL2i0zoJV-2">
          <mxGeometry width="50" height="50" relative="1" as="geometry">
            <mxPoint x="460" y="305" as="sourcePoint" />
            <mxPoint x="510" y="255" as="targetPoint" />
          </mxGeometry>
        </mxCell>
        <mxCell id="5aG_hYRVHrZAL2i0zoJV-17" value="" style="endArrow=none;html=1;rounded=0;exitX=0.5;exitY=0.5;exitDx=0;exitDy=0;exitPerimeter=0;" edge="1" parent="1" source="5aG_hYRVHrZAL2i0zoJV-1" target="5aG_hYRVHrZAL2i0zoJV-20">
          <mxGeometry width="50" height="50" relative="1" as="geometry">
            <mxPoint x="250" y="280" as="sourcePoint" />
            <mxPoint x="300" y="230" as="targetPoint" />
          </mxGeometry>
        </mxCell>
        <mxCell id="5aG_hYRVHrZAL2i0zoJV-20" value="&lt;h3 style=&quot;box-sizing: border-box; margin-top: 0px; margin-bottom: 0.5rem; font-weight: 500; line-height: 1.2; font-family: &amp;quot;Roboto Condensed&amp;quot;; color: rgb(33, 37, 41); text-align: left; background-color: rgb(248, 249, 250);&quot; id=&quot;yui_3_17_2_1_1747692782615_1180&quot;&gt;&lt;font style=&quot;vertical-align: inherit;&quot;&gt;&lt;font style=&quot;vertical-align: inherit;&quot;&gt;&lt;font style=&quot;vertical-align: inherit;&quot;&gt;&lt;font style=&quot;vertical-align: inherit;&quot;&gt;&lt;font style=&quot;vertical-align: inherit;&quot;&gt;&lt;font style=&quot;vertical-align: inherit; font-size: 6px;&quot;&gt;Inserir foto&lt;/font&gt;&lt;/font&gt;&lt;/font&gt;&lt;/font&gt;&lt;/font&gt;&lt;/font&gt;&lt;/h3&gt;" style="ellipse;whiteSpace=wrap;html=1;" vertex="1" parent="1">
          <mxGeometry x="260" y="190" width="80" height="30" as="geometry" />
        </mxCell>
        <mxCell id="5aG_hYRVHrZAL2i0zoJV-21" value="&lt;h3 style=&quot;box-sizing: border-box; margin-top: 0px; margin-bottom: 0.5rem; font-weight: 500; line-height: 1.2; font-family: &amp;quot;Roboto Condensed&amp;quot;; color: rgb(33, 37, 41); text-align: left; background-color: rgb(248, 249, 250);&quot; id=&quot;yui_3_17_2_1_1747692782615_1180&quot;&gt;&lt;font style=&quot;vertical-align: inherit;&quot;&gt;&lt;font style=&quot;vertical-align: inherit;&quot;&gt;&lt;font style=&quot;vertical-align: inherit;&quot;&gt;&lt;font style=&quot;vertical-align: inherit; font-size: 9px;&quot;&gt;&amp;nbsp;Iniciar chat&lt;/font&gt;&lt;/font&gt;&lt;/font&gt;&lt;/font&gt;&lt;/h3&gt;" style="ellipse;whiteSpace=wrap;html=1;" vertex="1" parent="1">
          <mxGeometry x="334" y="350" width="66" height="30" as="geometry" />
        </mxCell>
        <mxCell id="5aG_hYRVHrZAL2i0zoJV-22" value="&lt;h3 style=&quot;box-sizing: border-box; margin-top: 0px; margin-bottom: 0.5rem; font-weight: 500; line-height: 1.2; font-family: &amp;quot;Roboto Condensed&amp;quot;; color: rgb(33, 37, 41); text-align: left; background-color: rgb(248, 249, 250);&quot; id=&quot;yui_3_17_2_1_1747692782615_1180&quot;&gt;&lt;font style=&quot;vertical-align: inherit;&quot;&gt;&lt;font style=&quot;vertical-align: inherit;&quot;&gt;&lt;font style=&quot;vertical-align: inherit;&quot;&gt;&lt;font style=&quot;vertical-align: inherit;&quot;&gt;&lt;font style=&quot;vertical-align: inherit;&quot;&gt;&lt;font style=&quot;vertical-align: inherit; font-size: 6px;&quot;&gt;&amp;nbsp;Inserir publicaÃ§Ã£o&lt;/font&gt;&lt;/font&gt;&lt;/font&gt;&lt;/font&gt;&lt;/font&gt;&lt;/font&gt;&lt;/h3&gt;" style="ellipse;whiteSpace=wrap;html=1;" vertex="1" parent="1">
          <mxGeometry x="340" y="195" width="70" height="30" as="geometry" />
        </mxCell>
        <mxCell id="5aG_hYRVHrZAL2i0zoJV-24" value="&lt;h3 style=&quot;box-sizing: border-box; margin-top: 0px; margin-bottom: 0.5rem; font-weight: 500; line-height: 1.2; font-family: &amp;quot;Roboto Condensed&amp;quot;; color: rgb(33, 37, 41); text-align: left; background-color: rgb(248, 249, 250);&quot; id=&quot;yui_3_17_2_1_1747692782615_1180&quot;&gt;&lt;font style=&quot;vertical-align: inherit;&quot;&gt;&lt;font style=&quot;vertical-align: inherit; font-size: 8px;&quot;&gt;Trocar Senha&lt;/font&gt;&lt;/font&gt;&lt;/h3&gt;" style="ellipse;whiteSpace=wrap;html=1;" vertex="1" parent="1">
          <mxGeometry x="280" y="230" width="106" height="30" as="geometry" />
        </mxCell>
        <mxCell id="5aG_hYRVHrZAL2i0zoJV-25" value="&lt;br&gt;&lt;h3 style=&quot;box-sizing: border-box; margin-top: 0px; margin-bottom: 0.5rem; font-weight: 500; line-height: 1.2; font-family: &amp;quot;Roboto Condensed&amp;quot;; color: rgb(33, 37, 41); font-style: normal; font-variant-ligatures: normal; font-variant-caps: normal; letter-spacing: normal; orphans: 2; text-align: left; text-indent: 0px; text-transform: none; widows: 2; word-spacing: 0px; -webkit-text-stroke-width: 0px; white-space: normal; background-color: rgb(248, 249, 250); text-decoration-thickness: initial; text-decoration-style: initial; text-decoration-color: initial;&quot; id=&quot;yui_3_17_2_1_1747692782615_1180&quot;&gt;&lt;font style=&quot;vertical-align: inherit;&quot;&gt;&lt;font style=&quot;vertical-align: inherit; font-size: 9px;&quot;&gt;Criar usuÃ¡rio&lt;/font&gt;&lt;/font&gt;&lt;/h3&gt;&lt;div&gt;&lt;br/&gt;&lt;/div&gt;" style="ellipse;whiteSpace=wrap;html=1;" vertex="1" parent="1">
          <mxGeometry x="364" y="380" width="76" height="30" as="geometry" />
        </mxCell>
        <mxCell id="5aG_hYRVHrZAL2i0zoJV-26" value="&lt;h3 style=&quot;box-sizing: border-box; margin-top: 0px; margin-bottom: 0.5rem; font-weight: 500; line-height: 1.2; font-family: &amp;quot;Roboto Condensed&amp;quot;; color: rgb(33, 37, 41); text-align: left; background-color: rgb(248, 249, 250);&quot; id=&quot;yui_3_17_2_1_1747692782615_1180&quot;&gt;&lt;font style=&quot;vertical-align: inherit;&quot;&gt;&lt;font style=&quot;vertical-align: inherit; font-size: 9px;&quot;&gt;Apagar UsuÃ¡rio&lt;/font&gt;&lt;/font&gt;&lt;/h3&gt;" style="ellipse;whiteSpace=wrap;html=1;" vertex="1" parent="1">
          <mxGeometry x="370" y="320" width="70" height="30" as="geometry" />
        </mxCell>
        <mxCell id="5aG_hYRVHrZAL2i0zoJV-27" value="" style="endArrow=none;html=1;rounded=0;exitX=1;exitY=0.5;exitDx=0;exitDy=0;" edge="1" parent="1" source="5aG_hYRVHrZAL2i0zoJV-26">
          <mxGeometry width="50" height="50" relative="1" as="geometry">
            <mxPoint x="430" y="340" as="sourcePoint" />
            <mxPoint x="596" y="280" as="targetPoint" />
          </mxGeometry>
        </mxCell>
        <mxCell id="5aG_hYRVHrZAL2i0zoJV-28" value="&lt;h3 style=&quot;box-sizing: border-box; margin-top: 0px; margin-bottom: 0.5rem; font-weight: 500; line-height: 1.2; font-family: &amp;quot;Roboto Condensed&amp;quot;; color: rgb(33, 37, 41); text-align: left; background-color: rgb(248, 249, 250);&quot; id=&quot;yui_3_17_2_1_1747692782615_1180&quot;&gt;&lt;font style=&quot;vertical-align: inherit;&quot;&gt;&lt;font style=&quot;vertical-align: inherit; font-size: 6px;&quot;&gt;Abrir Chamado&lt;/font&gt;&lt;/font&gt;&lt;/h3&gt;" style="ellipse;whiteSpace=wrap;html=1;" vertex="1" parent="1">
          <mxGeometry x="374" y="290" width="80" height="30" as="geometry" />
        </mxCell>
        <mxCell id="5aG_hYRVHrZAL2i0zoJV-29" value="" style="endArrow=none;html=1;rounded=0;entryX=0;entryY=0.5;entryDx=0;entryDy=0;exitX=0.5;exitY=0.5;exitDx=0;exitDy=0;exitPerimeter=0;" edge="1" parent="1" source="5aG_hYRVHrZAL2i0zoJV-1" target="5aG_hYRVHrZAL2i0zoJV-28">
          <mxGeometry width="50" height="50" relative="1" as="geometry">
            <mxPoint x="210" y="280" as="sourcePoint" />
            <mxPoint x="621" y="300" as="targetPoint" />
          </mxGeometry>
        </mxCell>
        <mxCell id="5aG_hYRVHrZAL2i0zoJV-31" value="&lt;h3 style=&quot;box-sizing: border-box; margin-top: 0px; margin-bottom: 0.5rem; font-weight: 500; line-height: 1.2; font-family: &amp;quot;Roboto Condensed&amp;quot;; color: rgb(33, 37, 41); text-align: left; background-color: rgb(248, 249, 250);&quot; id=&quot;yui_3_17_2_1_1747692782615_1180&quot;&gt;&lt;font style=&quot;vertical-align: inherit;&quot;&gt;&lt;font style=&quot;vertical-align: inherit; font-size: 6px;&quot;&gt;Atendente Chamado&lt;/font&gt;&lt;/font&gt;&lt;/h3&gt;" style="ellipse;whiteSpace=wrap;html=1;" vertex="1" parent="1">
          <mxGeometry x="450" y="230" width="70" height="40" as="geometry" />
        </mxCell>
        <mxCell id="5aG_hYRVHrZAL2i0zoJV-32" value="" style="endArrow=none;html=1;rounded=0;entryX=1;entryY=0.5;entryDx=0;entryDy=0;exitX=0.5;exitY=0.5;exitDx=0;exitDy=0;exitPerimeter=0;" edge="1" parent="1" source="5aG_hYRVHrZAL2i0zoJV-2" target="5aG_hYRVHrZAL2i0zoJV-31">
          <mxGeometry width="50" height="50" relative="1" as="geometry">
            <mxPoint x="350" y="340" as="sourcePoint" />
            <mxPoint x="400" y="290" as="targetPoint" />
          </mxGeometry>
        </mxCell>
      </root>
    </mxGraphModel>
  </diagram>
</mxfile>
